<svg width="142" height="18" viewBox="0 0 142 18" fill="none" xmlns="http://www.w3.org/2000/svg">
<path d="M11.8869 8.992C12.7669 9.27067 13.4563 9.74 13.9549 10.4C14.4536 11.0453 14.7029 11.8447 14.7029 12.798C14.7029 14.1473 14.1749 15.1887 13.1189 15.922C12.0776 16.6407 10.5523 17 8.54293 17H0.57893V1.6H8.10293C9.98026 1.6 11.4176 1.95933 12.4149 2.678C13.4269 3.39667 13.9329 4.372 13.9329 5.604C13.9329 6.352 13.7496 7.01933 13.3829 7.606C13.0309 8.19267 12.5323 8.65467 11.8869 8.992ZM4.12093 4.284V7.914H7.66293C8.54293 7.914 9.21026 7.76 9.66493 7.452C10.1196 7.144 10.3469 6.68933 10.3469 6.088C10.3469 5.48667 10.1196 5.03933 9.66493 4.746C9.21026 4.438 8.54293 4.284 7.66293 4.284H4.12093ZM8.27893 14.316C9.2176 14.316 9.9216 14.162 10.3909 13.854C10.8749 13.546 11.1169 13.0693 11.1169 12.424C11.1169 11.148 10.1709 10.51 8.27893 10.51H4.12093V14.316H8.27893ZM28.7532 11.126C28.7532 11.17 28.7312 11.478 28.6872 12.05H19.7332C19.8945 12.7833 20.2759 13.3627 20.8772 13.788C21.4785 14.2133 22.2265 14.426 23.1212 14.426C23.7372 14.426 24.2799 14.338 24.7492 14.162C25.2332 13.9713 25.6805 13.678 26.0912 13.282L27.9172 15.262C26.8025 16.538 25.1745 17.176 23.0332 17.176C21.6985 17.176 20.5179 16.9193 19.4912 16.406C18.4645 15.878 17.6725 15.152 17.1152 14.228C16.5579 13.304 16.2792 12.2553 16.2792 11.082C16.2792 9.92333 16.5505 8.882 17.0932 7.958C17.6505 7.01933 18.4059 6.29333 19.3592 5.78C20.3272 5.252 21.4052 4.988 22.5932 4.988C23.7519 4.988 24.8005 5.23733 25.7392 5.736C26.6779 6.23467 27.4112 6.95333 27.9392 7.892C28.4819 8.816 28.7532 9.894 28.7532 11.126ZM22.6152 7.584C21.8379 7.584 21.1852 7.804 20.6572 8.244C20.1292 8.684 19.8065 9.28533 19.6892 10.048H25.5192C25.4019 9.3 25.0792 8.706 24.5512 8.266C24.0232 7.81133 23.3779 7.584 22.6152 7.584ZM35.0201 17.176C34.0374 17.176 33.0768 17.0587 32.1381 16.824C31.1994 16.5747 30.4514 16.2667 29.8941 15.9L31.0381 13.436C31.5661 13.7733 32.2041 14.052 32.9521 14.272C33.7001 14.4773 34.4334 14.58 35.1521 14.58C36.6041 14.58 37.3301 14.2207 37.3301 13.502C37.3301 13.1647 37.1321 12.9227 36.7361 12.776C36.3401 12.6293 35.7314 12.5047 34.9101 12.402C33.9421 12.2553 33.1428 12.0867 32.5121 11.896C31.8814 11.7053 31.3314 11.368 30.8621 10.884C30.4074 10.4 30.1801 9.71067 30.1801 8.816C30.1801 8.068 30.3928 7.408 30.8181 6.836C31.2581 6.24933 31.8888 5.79467 32.7101 5.472C33.5461 5.14933 34.5288 4.988 35.6581 4.988C36.4941 4.988 37.3228 5.08333 38.1441 5.274C38.9801 5.45 39.6694 5.69933 40.2121 6.022L39.0681 8.464C38.0268 7.87733 36.8901 7.584 35.6581 7.584C34.9248 7.584 34.3748 7.68667 34.0081 7.892C33.6414 8.09733 33.4581 8.36133 33.4581 8.684C33.4581 9.05067 33.6561 9.30733 34.0521 9.454C34.4481 9.60067 35.0788 9.74 35.9441 9.872C36.9121 10.0333 37.7041 10.2093 38.3201 10.4C38.9361 10.576 39.4714 10.906 39.9261 11.39C40.3808 11.874 40.6081 12.5487 40.6081 13.414C40.6081 14.1473 40.3881 14.8 39.9481 15.372C39.5081 15.944 38.8628 16.3913 38.0121 16.714C37.1761 17.022 36.1788 17.176 35.0201 17.176ZM50.3596 16.428C50.0223 16.6773 49.6043 16.868 49.1056 17C48.6216 17.1173 48.1083 17.176 47.5656 17.176C46.1576 17.176 45.0649 16.8167 44.2876 16.098C43.5249 15.3793 43.1436 14.3233 43.1436 12.93V8.068H41.3176V5.428H43.1436V2.546H46.5756V5.428H49.5236V8.068H46.5756V12.886C46.5756 13.3847 46.7003 13.7733 46.9496 14.052C47.2136 14.316 47.5803 14.448 48.0496 14.448C48.5923 14.448 49.0543 14.3013 49.4356 14.008L50.3596 16.428ZM80.4578 1.6H87.4538C89.1258 1.6 90.5998 1.92267 91.8758 2.568C93.1665 3.19867 94.1638 4.09333 94.8678 5.252C95.5865 6.41067 95.9458 7.76 95.9458 9.3C95.9458 10.84 95.5865 12.1893 94.8678 13.348C94.1638 14.5067 93.1665 15.4087 91.8758 16.054C90.5998 16.6847 89.1258 17 87.4538 17H80.4578V1.6ZM87.2778 14.074C88.8178 14.074 90.0425 13.6487 90.9518 12.798C91.8758 11.9327 92.3378 10.7667 92.3378 9.3C92.3378 7.83333 91.8758 6.67467 90.9518 5.824C90.0425 4.95867 88.8178 4.526 87.2778 4.526H84.0218V14.074H87.2778ZM109.986 11.126C109.986 11.17 109.964 11.478 109.92 12.05H100.966C101.127 12.7833 101.508 13.3627 102.11 13.788C102.711 14.2133 103.459 14.426 104.354 14.426C104.97 14.426 105.512 14.338 105.982 14.162C106.466 13.9713 106.913 13.678 107.324 13.282L109.15 15.262C108.035 16.538 106.407 17.176 104.266 17.176C102.931 17.176 101.75 16.9193 100.724 16.406C99.697 15.878 98.905 15.152 98.3476 14.228C97.7903 13.304 97.5116 12.2553 97.5116 11.082C97.5116 9.92333 97.783 8.882 98.3256 7.958C98.883 7.01933 99.6383 6.29333 100.592 5.78C101.56 5.252 102.638 4.988 103.826 4.988C104.984 4.988 106.033 5.23733 106.972 5.736C107.91 6.23467 108.644 6.95333 109.172 7.892C109.714 8.816 109.986 9.894 109.986 11.126ZM103.848 7.584C103.07 7.584 102.418 7.804 101.89 8.244C101.362 8.684 101.039 9.28533 100.922 10.048H106.752C106.634 9.3 106.312 8.706 105.784 8.266C105.256 7.81133 104.61 7.584 103.848 7.584ZM116.722 4.988C118.556 4.988 119.964 5.428 120.946 6.308C121.929 7.17333 122.42 8.486 122.42 10.246V17H119.208V15.526C118.563 16.626 117.36 17.176 115.6 17.176C114.691 17.176 113.899 17.022 113.224 16.714C112.564 16.406 112.058 15.9807 111.706 15.438C111.354 14.8953 111.178 14.2793 111.178 13.59C111.178 12.49 111.589 11.6247 112.41 10.994C113.246 10.3633 114.53 10.048 116.26 10.048H118.988C118.988 9.3 118.761 8.728 118.306 8.332C117.852 7.92133 117.17 7.716 116.26 7.716C115.63 7.716 115.006 7.81867 114.39 8.024C113.789 8.21467 113.276 8.47867 112.85 8.816L111.618 6.418C112.264 5.96333 113.034 5.61133 113.928 5.362C114.838 5.11267 115.769 4.988 116.722 4.988ZM116.458 14.866C117.045 14.866 117.566 14.734 118.02 14.47C118.475 14.1913 118.798 13.788 118.988 13.26V12.05H116.634C115.226 12.05 114.522 12.512 114.522 13.436C114.522 13.876 114.691 14.228 115.028 14.492C115.38 14.7413 115.857 14.866 116.458 14.866ZM125.526 0.675999H128.958V17H125.526V0.675999ZM136.126 17.176C135.143 17.176 134.182 17.0587 133.244 16.824C132.305 16.5747 131.557 16.2667 131 15.9L132.144 13.436C132.672 13.7733 133.31 14.052 134.058 14.272C134.806 14.4773 135.539 14.58 136.258 14.58C137.71 14.58 138.436 14.2207 138.436 13.502C138.436 13.1647 138.238 12.9227 137.842 12.776C137.446 12.6293 136.837 12.5047 136.016 12.402C135.048 12.2553 134.248 12.0867 133.618 11.896C132.987 11.7053 132.437 11.368 131.968 10.884C131.513 10.4 131.286 9.71067 131.286 8.816C131.286 8.068 131.498 7.408 131.924 6.836C132.364 6.24933 132.994 5.79467 133.816 5.472C134.652 5.14933 135.634 4.988 136.764 4.988C137.6 4.988 138.428 5.08333 139.25 5.274C140.086 5.45 140.775 5.69933 141.318 6.022L140.174 8.464C139.132 7.87733 137.996 7.584 136.764 7.584C136.03 7.584 135.48 7.68667 135.114 7.892C134.747 8.09733 134.564 8.36133 134.564 8.684C134.564 9.05067 134.762 9.30733 135.158 9.454C135.554 9.60067 136.184 9.74 137.05 9.872C138.018 10.0333 138.81 10.2093 139.426 10.4C140.042 10.576 140.577 10.906 141.032 11.39C141.486 11.874 141.714 12.5487 141.714 13.414C141.714 14.1473 141.494 14.8 141.054 15.372C140.614 15.944 139.968 16.3913 139.118 16.714C138.282 17.022 137.284 17.176 136.126 17.176Z" fill="#EF704B"/>
<path d="M63.0661 14.096V17H51.4281V14.69L57.3681 9.08C57.9988 8.47867 58.4241 7.96533 58.6441 7.54C58.8641 7.1 58.9741 6.66733 58.9741 6.242C58.9741 5.626 58.7615 5.15667 58.3361 4.834C57.9255 4.49667 57.3168 4.328 56.5101 4.328C55.8355 4.328 55.2268 4.46 54.6841 4.724C54.1415 4.97333 53.6868 5.35467 53.3201 5.868L50.7241 4.196C51.3255 3.30133 52.1541 2.60467 53.2101 2.106C54.2661 1.59267 55.4761 1.336 56.8401 1.336C57.9841 1.336 58.9815 1.52667 59.8321 1.908C60.6975 2.27467 61.3648 2.80267 61.8341 3.492C62.3181 4.16667 62.5601 4.966 62.5601 5.89C62.5601 6.726 62.3841 7.51067 62.0321 8.244C61.6801 8.97733 60.9981 9.81333 59.9861 10.752L56.4441 14.096H63.0661ZM78.4239 13.766H75.9159V17H72.4399V13.766H64.1459V11.368L71.4059 1.6H75.1459L68.4139 10.862H72.5499V7.98H75.9159V10.862H78.4239V13.766Z" fill="black"/>
</svg>
