<svg width="103" height="38" viewBox="0 0 103 38" fill="none" xmlns="http://www.w3.org/2000/svg">
<path d="M0.390793 0.299998H7.03279V23.588H21.4238V29H0.390793V0.299998ZM35.0198 29.328C32.6964 29.328 30.6054 28.8497 28.7468 27.893C26.9154 26.909 25.4804 25.556 24.4418 23.834C23.4031 22.112 22.8838 20.1577 22.8838 17.971C22.8838 15.7843 23.4031 13.83 24.4418 12.108C25.4804 10.386 26.9154 9.04667 28.7468 8.09C30.6054 7.106 32.6964 6.614 35.0198 6.614C37.3431 6.614 39.4204 7.106 41.2518 8.09C43.0831 9.04667 44.5181 10.386 45.5568 12.108C46.5954 13.83 47.1148 15.7843 47.1148 17.971C47.1148 20.1577 46.5954 22.112 45.5568 23.834C44.5181 25.556 43.0831 26.909 41.2518 27.893C39.4204 28.8497 37.3431 29.328 35.0198 29.328ZM35.0198 24.08C36.6598 24.08 37.9991 23.5333 39.0378 22.44C40.1038 21.3193 40.6368 19.8297 40.6368 17.971C40.6368 16.1123 40.1038 14.6363 39.0378 13.543C37.9991 12.4223 36.6598 11.862 35.0198 11.862C33.3798 11.862 32.0268 12.4223 30.9608 13.543C29.8948 14.6363 29.3618 16.1123 29.3618 17.971C29.3618 19.8297 29.8948 21.3193 30.9608 22.44C32.0268 23.5333 33.3798 24.08 35.0198 24.08Z" fill="#EF704B"/>
<path d="M74.145 6.942V25.31C74.145 29.3553 73.0927 32.362 70.988 34.33C68.8833 36.298 65.8083 37.282 61.763 37.282C59.631 37.282 57.6083 37.0223 55.695 36.503C53.7817 35.9837 52.1963 35.232 50.939 34.248L53.481 29.656C54.4103 30.4213 55.5857 31.0227 57.007 31.46C58.4283 31.9247 59.8497 32.157 61.271 32.157C63.485 32.157 65.1113 31.6513 66.15 30.64C67.216 29.656 67.749 28.1527 67.749 26.13V25.187C66.0817 27.0183 63.7583 27.934 60.779 27.934C58.7563 27.934 56.8977 27.4967 55.203 26.622C53.5357 25.72 52.21 24.4627 51.226 22.85C50.242 21.2373 49.75 19.3787 49.75 17.274C49.75 15.1693 50.242 13.3107 51.226 11.698C52.21 10.0853 53.5357 8.84167 55.203 7.967C56.8977 7.065 58.7563 6.614 60.779 6.614C63.977 6.614 66.4097 7.66633 68.077 9.771V6.942H74.145ZM62.05 22.686C63.7447 22.686 65.125 22.194 66.191 21.21C67.2843 20.1987 67.831 18.8867 67.831 17.274C67.831 15.6613 67.2843 14.363 66.191 13.379C65.125 12.3677 63.7447 11.862 62.05 11.862C60.3553 11.862 58.9613 12.3677 57.868 13.379C56.7747 14.363 56.228 15.6613 56.228 17.274C56.228 18.8867 56.7747 20.1987 57.868 21.21C58.9613 22.194 60.3553 22.686 62.05 22.686ZM90.594 29.328C88.2707 29.328 86.1797 28.8497 84.321 27.893C82.4897 26.909 81.0547 25.556 80.016 23.834C78.9773 22.112 78.458 20.1577 78.458 17.971C78.458 15.7843 78.9773 13.83 80.016 12.108C81.0547 10.386 82.4897 9.04667 84.321 8.09C86.1797 7.106 88.2707 6.614 90.594 6.614C92.9173 6.614 94.9947 7.106 96.826 8.09C98.6573 9.04667 100.092 10.386 101.131 12.108C102.17 13.83 102.689 15.7843 102.689 17.971C102.689 20.1577 102.17 22.112 101.131 23.834C100.092 25.556 98.6573 26.909 96.826 27.893C94.9947 28.8497 92.9173 29.328 90.594 29.328ZM90.594 24.08C92.234 24.08 93.5733 23.5333 94.612 22.44C95.678 21.3193 96.211 19.8297 96.211 17.971C96.211 16.1123 95.678 14.6363 94.612 13.543C93.5733 12.4223 92.234 11.862 90.594 11.862C88.954 11.862 87.601 12.4223 86.535 13.543C85.469 14.6363 84.936 16.1123 84.936 17.971C84.936 19.8297 85.469 21.3193 86.535 22.44C87.601 23.5333 88.954 24.08 90.594 24.08Z" fill="black"/>
</svg>
